PathFileType	4	(X/Y/Z)	Patient4_TMGait_0pt6_01_right_32.trc.trc
DataRate	CameraRate	NumFrames	NumMarkers	Units	OrigDataRate	OrigDataStartFrame	OrigNumFrames
77.777777777778	77.777777777778	4	33	mm	77.777777777778	106	       141
Frame#	Time	Sacral			L.Shoulder			Chest			R.Shoulder			Neck			R.ASIS			L.ASIS			R.Thigh.Superior			R.Thigh.Lateral			R.Thigh.Inferior			R.Patella			L.Thigh.Superior			L.Thigh.Lateral			L.Thigh.Inferior			L.Patella			L.Shank.Superior			L.Shank.Lateral			L.Shank.Inferior			R.Shank.Superior			R.Shank.Lateral			R.Shank.Inferior			R.Heel			R.Midfoot.Superior			R.Midfoot.Lateral			R.Toe			L.Heel			L.Midfoot.Lateral			L.Midfoot.Superior			L.Toe			L.Elbow			L.Wrist			R.Elbow			R.Wrist			
		X1	Y1	Z1	X2	Y2	Z2	X3	Y3	Z3	X4	Y4	Z4	X5	Y5	Z5	X6	Y6	Z6	X7	Y7	Z7	X8	Y8	Z8	X9	Y9	Z9	X10	Y10	Z10	X11	Y11	Z11	X12	Y12	Z12	X13	Y13	Z13	X14	Y14	Z14	X15	Y15	Z15	X16	Y16	Z16	X17	Y17	Z17	X18	Y18	Z18	X19	Y19	Z19	X20	Y20	Z20	X21	Y21	Z21	X22	Y22	Z22	X23	Y23	Z23	X24	Y24	Z24	X25	Y25	Z25	X26	Y26	Z26	X27	Y27	Z27	X28	Y28	Z28	X29	Y29	Z29	X30	Y30	Z30	X31	Y31	Z31	X32	Y32	Z32	X33	Y33	Z33	

106	39.620000000000	722.412844944259	1017.262191507549	448.366332341916	913.115342195715	1443.651449393743	273.524888150666	1009.989080459903	1369.508350729451	435.169889008834	924.787664324675	1442.862463683943	607.632838301511	906.590890376421	1502.987632467830	425.581964260173	948.287156959466	951.484305305581	565.741947333247	940.171262635553	970.889165616197	290.678129199669	1042.617991017331	802.510541501825	532.913786524869	1022.967068788441	679.033779489764	610.347364299283	1116.049885073441	651.149116364602	529.451702929907	1151.196152750204	541.200976833455	551.565178194525	962.349080130141	746.435594276668	319.259381389508	854.976155258786	641.427826612451	268.282879091564	930.042215533783	555.126526005581	329.079061297446	921.881555333811	488.278859586507	342.518955862854	894.570668194579	419.322503251137	337.460861037203	799.238392650819	307.041887587354	293.095838870838	848.247106813287	196.560679560303	368.043570874841	1085.644982504392	456.839190873323	557.486878021583	971.580681263197	397.873261750203	615.323696804818	975.055317735126	288.842044758553	565.404473194721	786.905790188132	203.123196461692	534.084606017518	958.886420191432	159.335232902860	574.327028056186	849.564674532192	144.957103483760	605.052869484614	1033.988301596841	52.730321648122	596.053104272613	714.696210076016	42.625519877684	417.685952332985	789.563903748692	36.545971674732	338.468703794710	874.089647920204	96.618067063463	362.902372416207	1001.592218044776	39.979153451736	338.255166450110	956.804407834280	1106.250738697569	124.730016516084	1183.371044926138	977.432108602236	138.402106581697	824.659166008410	1107.740863010736	716.735330309666	833.031782549839	844.577028425867	716.155751567307	
107	39.632857142857	721.713420997043	1017.318029820234	447.968824059820	914.078027964786	1443.303366634915	273.453310629286	1010.075648598915	1369.099424234080	435.587421018944	924.267225114842	1442.914556058030	607.549886732976	906.785129659201	1502.743124478581	425.398974295019	947.445916579557	951.522264022328	565.969969789626	939.677952608525	970.626064824841	290.922213192863	1042.232301277420	804.078979726037	532.659215274262	1024.084444719943	680.188794224093	609.993860897628	1116.975618392574	653.279857838052	528.802055696989	1154.007394508503	545.289874111836	550.896347833189	959.772077793952	745.514647069393	319.742023862610	851.025174258856	641.622727659100	268.170594403388	924.693178967626	554.513778563590	329.143094605498	915.730896811089	487.989902696774	342.454282369098	888.196565660254	419.221221601145	337.384247518981	792.387984175222	307.353596734843	293.109138106232	841.061659446106	196.663805169365	367.957597459639	1092.946031770665	458.856334511552	557.050298482888	983.217859393436	393.247907357228	615.616236525429	992.990493345822	284.707230873843	565.409158206499	810.490341850179	186.940902740297	534.919805015626	984.892501259520	155.158725957614	574.607928342351	877.091286962259	133.947351229270	606.324628229877	1067.106073769056	54.274347900588	597.269452808105	707.025527007290	43.017464552221	417.539152179924	781.861579389042	36.677085564909	338.428592714513	866.488347414090	96.678454631255	362.769774178045	993.864611440943	39.886480157317	338.171476344841	961.629095036332	1107.238150614841	124.233868774888	1192.894723244552	987.710782999109	139.492153382013	816.120832977628	1111.064881775013	716.872495548991	816.457646150606	848.097545785601	715.984866795455	
108	39.645714285714	721.178487221389	1017.147163875121	447.663586829983	915.010791503557	1442.733699750969	273.480837222506	1010.189958202601	1368.525965241978	436.098273567642	923.760811330086	1442.806031219739	607.560826985293	906.974997909312	1502.305865781088	425.308161055850	946.704558805780	951.352598261902	566.347716349505	939.226176406536	970.098960772297	291.349494365497	1041.522423364310	804.809971442258	532.571236516263	1024.366027098955	680.560087518038	609.736028266782	1116.861962548605	654.273204224524	528.183352039667	1155.563924265310	548.517161343661	550.232513242221	957.378409141308	744.433496106554	320.424443546252	847.297576217544	641.649681549522	268.194615924143	919.507111643870	553.768183005544	329.443300540359	909.752398321321	487.555897411706	342.615748183289	881.948517058757	418.969710694779	337.528657964891	785.707150276017	307.540045496981	293.257609703557	833.919098093451	196.640211686164	368.053671012217	1099.297453389704	460.310146571042	556.775903856611	994.723824716631	388.037602823292	616.300339619576	1011.052957197964	280.405921786508	565.775361984851	835.453331686020	170.385365597297	536.218382646256	1011.459470683764	151.262567947945	575.381905257548	905.763452390009	123.080776226951	608.082457532429	1100.598434297311	56.773323850159	599.013169745123	699.353566395232	43.289663223614	417.474885178759	774.142964084484	36.786602535557	338.431931987958	858.856207172929	96.709806702656	362.733530489597	986.122302381105	39.807790553709	338.105184693104	966.071205492314	1107.903910347732	123.974074161442	1201.434115309510	997.449991815240	140.862477455273	807.842397773570	1114.371523203365	717.052453027214	801.225967752734	851.856814722506	715.917337043294	
109	39.658571428571	720.828095058496	1016.739366291941	447.455599050696	915.932813012474	1441.949168430280	273.603263287610	1010.336511357635	1367.788539709513	436.702747941440	923.265650965234	1442.529109451511	607.664141658561	907.160890987521	1501.678690797946	425.307142038757	946.089506030537	950.981275465895	566.876439572600	938.848178079246	969.313726336439	291.944947371925	1040.510272841044	804.671320463784	532.666464551987	1023.805272471472	680.133656116738	609.630428722456	1115.724247144151	654.100875811859	527.656344504145	1155.888050081329	550.838030555387	549.609484623549	955.138886273234	743.179129791323	321.297753430154	843.765600629761	641.504674316057	268.354618056406	914.458192915053	552.880101337873	329.971944429806	903.917067798998	486.965232468594	342.993144797655	875.802587905487	418.566306429285	337.879548586712	779.165883995974	307.599838364812	293.526218972946	826.798723869129	196.488868345260	368.317047517862	1104.651521338665	461.208444038397	556.673192047654	1006.014974390992	382.385552371884	617.353287239308	1029.038312371264	276.118383788933	566.435067020034	861.531369955216	153.885740212040	537.898448201350	1038.262384680599	147.842365993925	576.488470953566	935.262737353894	112.630638498117	610.148952052294	1134.025272731402	60.350119441429	600.973982922078	691.671655697852	43.427250365985	417.492212607292	766.403562270298	36.867434885096	338.477042661193	851.183997966179	96.706328480645	362.791711981472	978.359650894956	39.743482572175	338.059645028369	970.131784477449	1108.230680389806	123.945697131603	1208.996981753219	1006.521710524719	142.490290904377	799.960768413835	1117.564417952449	717.247364521824	787.297322241694	855.626169822496	716.078542851908	
